<?xml version="1.0" encoding="UTF-8"?>
<svg width="22px" height="24px" viewBox="0 0 22 24" version="1.1" xmlns="http://www.w3.org/2000/svg" xmlns:xlink="http://www.w3.org/1999/xlink">
    <!-- Generator: Sketch 54 (76480) - https://sketchapp.com -->
    <title>info-color</title>
    <desc>Created with Sketch.</desc>
    <g id="prototype" stroke="none" stroke-width="1" fill="none" fill-rule="evenodd">
        <path d="M10.0001232,11.6664861 C9.0801326,11.6664861 8.33314027,10.920455 8.33314027,9.99941664 C8.33314027,9.07837827 9.0801326,8.33234718 10.0001232,8.33234718 C10.9201137,8.33234718 11.6661061,9.07837827 11.6661061,9.99941664 C11.6661061,10.920455 10.9201137,11.6664861 10.0001232,11.6664861 L10.0001232,11.6664861 Z M10.6741162,4.9992083 C10.9161138,5.6832368 10.986113,6.12125505 11.5151076,6.34026418 L11.5161076,6.34026418 C12.0461022,6.56127339 12.4090984,6.29626234 13.0590918,5.98724947 L14.012082,6.93928914 C13.7000852,7.59431643 13.4390879,7.95533147 13.6580856,8.48335347 L13.6580856,8.48435351 C13.8770834,9.01237552 14.3110789,9.08137839 15.0000718,9.32538856 L15.0000718,10.6724447 C14.3190788,10.9154548 13.8770834,10.9854577 13.6580856,11.5154798 C13.4380879,12.0445019 13.7010852,12.4065169 14.012082,13.0595441 L13.0590918,14.0115838 C12.4020985,13.6985708 12.0451022,13.4375599 11.5181076,13.656569 L11.5171076,13.656569 C10.986113,13.8785783 10.9161138,14.3175966 10.6741162,14.999625 L9.32613008,14.999625 C9.08413256,14.3155965 9.01413328,13.8775782 8.48513871,13.6595691 L8.48413872,13.6585691 C7.95514415,13.4375599 7.59214788,13.7015709 6.94015457,14.0115838 L5.98816434,13.0595441 C6.29316121,12.4165174 6.56215845,12.048502 6.34116072,11.5144798 C6.12116297,10.9854577 5.6801675,10.9154548 5.00017448,10.6724447 L5.00017448,9.32538856 C5.68116749,9.08337847 6.12116297,9.01337556 6.34116072,8.48435351 C6.56115846,7.95333139 6.29916115,7.59331639 5.98816434,6.93928914 L6.94015457,5.98724947 C7.59714783,6.29926247 7.95514415,6.56027334 8.48413872,6.34026418 L8.48513871,6.34026418 C9.01413328,6.12125505 9.08413256,5.67923663 9.32613008,4.9992083 L10.6741162,4.9992083 Z M10.1541216,1.9990833 C5.86916556,2.0470853 2.41420102,4.54718947 2.03320493,8.48735364 C1.8412069,10.4784366 2.49620018,12.4735197 3.54918937,14.1925914 C4.1601831,15.192633 4.85417598,15.7846577 5.01317435,18.0677528 C5.10417341,19.3808075 4.96317486,20.7038627 4.77217682,21.9999167 L13.3760885,21.9999167 C13.5170871,21.3548898 13.7260849,20.5148548 14.0630815,19.942831 C14.5120769,19.176799 15.1600702,18.8437852 15.9890617,18.6887787 C16.8270531,18.5407725 17.227049,18.6297762 17.4780464,17.903746 C17.6900442,17.3247219 18.0900401,15.6826534 18.3090379,14.0015834 C19.5120255,13.6665694 18.9210316,13.8405767 19.9800207,13.4425601 C19.7740228,13.2085504 18.0620404,11.1284637 17.9350417,10.8424518 C17.5990452,10.0834201 17.8890422,9.65240218 18.1600394,8.92937206 C18.2460385,8.6783616 18.2200388,8.57235718 18.1510395,8.31634651 C17.1020503,4.36718197 14.2600794,1.9990833 10.1541216,1.9990833 L10.1541216,1.9990833 Z M14.9960719,24 L2.39120126,24 C2.39120126,24 3.12519372,20.0688362 3.02419476,18.3137631 C2.98319518,17.5897329 2.86319641,16.8397017 2.4842003,16.2096754 C1.83920692,15.2096337 -0.151772643,12.4895204 0.00922570435,8.77936581 C0.233223405,3.57014876 4.70217754,0 10.1351218,0 C15.2330695,0 18.6420345,3.00112505 19.9930206,7.4833118 C20.3210172,8.56235676 20.3040174,9.02437602 19.8420221,10.0904204 L19.8360222,10.103421 L21.5870042,12.2455102 C21.8470016,12.6265261 22,13.0365432 22,13.4845619 C22,14.0315846 21.7670024,14.5296054 21.3900063,14.8836202 C21.02201,15.2286345 20.6230141,15.335639 20.1420191,15.5256469 C20.1420191,15.5256469 19.566025,18.1177549 19.269028,18.816784 C18.5690352,20.4598525 17.2990482,20.4758532 16.2990585,20.6658611 C15.9050626,20.7488645 15.8090635,20.7988666 15.6180655,21.3468895 C15.4100676,21.9379141 15.2550692,22.7819492 14.9960719,24 L14.9960719,24 Z" id="info-color" fill="#00B6FF"></path>
    </g>
</svg>