<?xml version="1.0" encoding="UTF-8"?>
<svg width="24px" height="24px" viewBox="0 0 24 24" version="1.1" xmlns="http://www.w3.org/2000/svg" xmlns:xlink="http://www.w3.org/1999/xlink">
    <!-- Generator: Sketch 54 (76480) - https://sketchapp.com -->
    <title>my-campaign-grey</title>
    <desc>Created with Sketch.</desc>
    <g id="prototype" stroke="none" stroke-width="1" fill="none" fill-rule="evenodd">
        <path d="M19.753,17.995095 C19.492,17.420233 18.964,17.0239117 17.882,16.7786634 C15.589,16.258737 13.454,15.8045371 14.489,13.8886573 C17.634,8.05959534 15.322,4.94297977 12,4.94297977 C8.612,4.94297977 6.356,8.17927652 9.511,13.8886573 C10.577,15.815328 8.363,16.2695279 6.118,16.7786634 C5.034,17.0239117 4.51,17.423176 4.251,18 C2.846,16.3097486 2,14.1554874 2,11.8099326 C2,6.40073574 6.486,2 12,2 C17.514,2 22,6.40073574 22,11.8099326 C22,14.1535254 21.155,16.3058246 19.753,17.995095 M12,0 C5.373,0 0,5.373 0,12 C0,18.627 5.373,24 12,24 C18.627,24 24,18.627 24,12 C24,5.373 18.627,0 12,0" id="my-campaign-grey" fill="#313131"></path>
    </g>
</svg>