<?xml version="1.0" encoding="UTF-8"?>
<svg width="22px" height="22px" viewBox="0 0 22 22" version="1.1" xmlns="http://www.w3.org/2000/svg" xmlns:xlink="http://www.w3.org/1999/xlink">
    <!-- Generator: Sketch 54 (76480) - https://sketchapp.com -->
    <title>notification-grey</title>
    <desc>Created with Sketch.</desc>
    <g id="prototype" stroke="none" stroke-width="1" fill="none" fill-rule="evenodd">
        <path d="M19.2924739,2.70725536 C18.9033895,2.31707608 18.9016289,1.6820439 19.2924739,1.29274539 C19.6824386,0.903446883 20.3162413,0.901685351 20.706206,1.29186463 C21.0979313,1.68292467 21.0979313,2.31883761 20.706206,2.70813612 C20.315361,3.09743463 19.6833189,3.09743463 19.2924739,2.70725536 L19.2924739,2.70725536 Z M6.55395683,9 L5,7.72368497 C8.29085303,6.70736004 13.1706064,2.20564838 17,3.12236671 C13.8376156,3.32917702 10.0184995,7.56836621 6.55395683,9 L6.55395683,9 Z M20.7698333,5.85108333 C20.5709167,5.10216667 20.79,4.29641667 21.3445833,3.74366667 L21.3464167,3.74091667 C21.7809167,3.30641667 22,2.73716667 22,2.17066667 C22,0.967083333 21.0310833,0 19.8275,0 C19.2619167,0 18.6926667,0.218166667 18.25725,0.652666667 L18.2554167,0.655416667 C17.7008333,1.21 16.8978333,1.43 16.148,1.23016667 C10.7121667,-0.210833333 6.05366667,8.39758333 1.287,5.97575 L0,7.26458333 L14.7354167,22 L16.0233333,20.7111667 C13.6024167,15.9463333 22.21175,11.28875 20.7698333,5.85108333 L20.7698333,5.85108333 Z M9,18.9694263 C8.32800395,19.6351769 7.40218897,20 6.48053495,20 C5.57136383,20 4.66427319,19.6434215 4.00892101,18.9941601 C2.68781423,17.6853315 2.64828505,15.322226 3.98395521,14 L9,18.9694263 Z" id="notification-grey" fill="#313131"></path>
    </g>
</svg>