<?xml version="1.0" encoding="UTF-8"?>
<svg width="22px" height="22px" viewBox="0 0 22 22" version="1.1" xmlns="http://www.w3.org/2000/svg" xmlns:xlink="http://www.w3.org/1999/xlink">
    <!-- Generator: Sketch 54 (76480) - https://sketchapp.com -->
    <title>setting-color</title>
    <desc>Created with Sketch.</desc>
    <g id="prototype" stroke="none" stroke-width="1" fill="none" fill-rule="evenodd">
        <path d="M11,15 C8.791,15 7,13.209 7,11 C7,8.791 8.791,7 11,7 C13.209,7 15,8.791 15,11 C15,13.209 13.209,15 11,15 M22,9.51866667 C20.4865833,8.98058333 19.5305,8.82933333 19.04925,7.66791667 C18.5661667,6.50191667 19.1409167,5.71083333 19.8256667,4.26891667 L17.7310833,2.17433333 C16.3001667,2.8545 15.5008333,3.43475 14.333,2.95075 C13.1688333,2.46858333 13.0166667,1.50608333 12.4813333,0 L9.51866667,0 C8.98516667,1.49875 8.83208333,2.46766667 7.66791667,2.95075 C6.50191667,3.43475 5.71266667,2.86091667 4.26891667,2.17433333 L2.17433333,4.26891667 C2.85725,5.70625 3.43475,6.50008333 2.95075,7.667 C2.46766667,8.83208333 1.49875,8.98516667 0,9.51866667 L0,12.4813333 C1.496,13.013 2.46766667,13.1679167 2.95075,14.3320833 C3.43658333,15.50725 2.84625,16.3175833 2.17433333,17.7301667 L4.26891667,19.8256667 C5.70075,19.1445833 6.50008333,18.56525 7.667,19.04925 C8.83208333,19.5314167 8.98425,20.4966667 9.51866667,22 L12.4813333,22 C13.0148333,20.5003333 13.1688333,19.5341667 14.3394167,19.0465 C15.4971667,18.5661667 16.2836667,19.1390833 17.7301667,19.8265833 L19.82475,17.7310833 C19.14275,16.2983333 18.5643333,15.5008333 19.0474167,14.3339167 C19.5305,13.1688333 20.5030833,13.0139167 22,12.4813333 L22,9.51866667 Z" id="setting-color" fill="#00B6FF"></path>
    </g>
</svg>